<?xml version="1.0" encoding="UTF-8"?>
<svg id="Layer_1" data-name="Layer 1" xmlns="http://www.w3.org/2000/svg" viewBox="0 0 863.5 89.1753">
  <polygon points="51.1178 62.9464 50.1149 62.9464 24.2147 1.3249 0 1.3249 0 87.8798 16.3005 87.8798 16.3005 26.1509 17.451 26.1509 42.3802 87.8798 57.4497 87.8798 82.4862 26.1509 83.6367 26.1509 83.6367 87.8798 101.0164 87.8798 101.0164 1.3249 76.9107 1.3249 51.1178 62.9464" style="fill: #fff;"/>
  <path d="M211.5907,26.862c-3.6376,2.1685-6.3369,5.5093-8.0207,9.9276l-.1048.2767h-5.2577v-13.4897h-17.2716v16.8397h8.8492v47.8073h16.7315v-32.2698c0-5.2585,1.3584-9.562,4.0384-12.792,2.6993-3.2536,6.9683-4.9038,12.6872-4.9038h5.8296v-14.6813h-5.074c-4.576,0-8.7502,1.1052-12.4071,3.2854Z" style="fill: #fff;"/>
  <path d="M544.4864,26.5174c-3.6385,2.1702-6.3369,5.5101-8.0199,9.9284l-.1048.2767h-5.2585v-13.4905h-17.2716v16.8397h8.8492v47.8081h16.7324v-32.2698c0-5.2585,1.3584-9.5628,4.0376-12.7929,2.6993-3.2536,6.9683-4.9038,12.6872-4.9038h5.8296v-14.6813h-5.074c-4.5751,0-8.7494,1.1052-12.4071,3.2854Z" style="fill: #fff;"/>
  <path d="M350.3711,26.5274c-4.7705-2.5442-10.5665-3.8347-17.2271-3.8347-6.8031,0-12.7803,1.345-17.7671,3.9965-4.9734,2.6448-8.8534,6.4719-11.5334,11.3741-2.6867,4.9122-4.0485,10.8525-4.0485,17.6548s1.3979,12.7761,4.155,17.7604c2.753,4.9768,6.7251,8.8769,11.8059,11.5921,5.0933,2.7236,11.1611,4.1047,18.0355,4.1047,8.4316,0,15.4645-1.953,20.9041-5.8036,5.2828-3.7382,8.7066-8.9381,10.1833-15.462h-17.0804c-.9794,2.607-2.6045,4.5835-4.8342,5.8782-2.2867,1.3274-5.4086,1.9999-9.2802,1.9999-4.9063,0-8.9213-1.3056-11.9342-3.88-3.0179-2.5743-4.9189-6.3671-5.6493-11.2709l-.0738-.4922h49.1716v-5.6132c0-6.5868-1.2897-12.3283-3.8338-17.0644-2.5374-4.7219-6.2363-8.4022-10.9934-10.9397ZM316.4166,49.133l.1216-.5266c.9534-4.1089,2.8762-7.2778,5.7172-9.4186,2.8335-2.1341,6.5331-3.2167,10.9967-3.2167,4.4669,0,8.0786,1.0658,10.7351,3.1689,2.6666,2.1106,4.3168,5.3088,4.9063,9.5041l.0688.4889h-32.5457Z" style="fill: #fff;"/>
  <path d="M397.0538,36.3166h14.7853v-13.1702h-15.0008V3.7206h-16.6242v19.4258h-11.3313v13.1702h11.1149v37.7472c0,4.6741,1.2419,8.18,3.6921,10.4215,2.4586,2.2523,5.9738,3.3944,10.4483,3.3944h19.2111v-13.1702h-16.2955v-38.3929Z" style="fill: #fff;"/>
  <path d="M778.0277,36.3166h14.7853v-13.1702h-15.0008V3.7206h-16.6242v19.4258h-11.3313v13.1702h11.1158v37.7472c0,4.6741,1.2419,8.1809,3.6913,10.4215,2.4586,2.2523,5.9738,3.3944,10.4483,3.3944h19.2111v-13.1702h-16.2955v-38.3929Z" style="fill: #fff;"/>
  <path d="M616.604,26.7438c-5.0942-2.6884-11.1988-4.051-18.1462-4.051-7.0212,0-13.1996,1.3635-18.3633,4.0519-5.1537,2.6842-9.1796,6.5491-11.9652,11.4864-2.7915,4.9458-4.207,10.8651-4.207,17.5944,0,6.8015,1.4331,12.7568,4.2607,17.7017,2.8217,4.9424,6.8484,8.8257,11.9686,11.5434,5.1286,2.7236,11.2516,4.1047,18.199,4.1047s13.0713-1.3635,18.2007-4.0519c5.1168-2.6825,9.1058-6.5633,11.8562-11.5367,2.7571-4.9843,4.155-10.9229,4.155-17.6523,0-6.8006-1.3979-12.7577-4.1542-17.7059-2.7513-4.9374-6.7226-8.8014-11.8042-11.4847ZM611.0838,69.4368c-2.9492,3.355-7.2333,5.0564-12.7333,5.0564-5.5721,0-9.91-1.7006-12.8927-5.0539-2.9727-3.3374-4.4795-7.9184-4.4795-13.6138s1.5077-10.2403,4.482-13.509c2.9852-3.2787,7.3214-4.9416,12.8901-4.9416,5.4967,0,9.7791,1.6637,12.73,4.9441,2.9374,3.2695,4.4267,7.8136,4.4267,13.5065s-1.4884,10.273-4.4233,13.6113Z" style="fill: #fff;"/>
  <polygon points="712.8508 66.0113 711.6844 66.0113 696.3867 23.1783 679.9462 23.1783 664.6486 66.0113 663.4821 66.0113 650.3706 23.1783 632.7033 23.1783 653.6225 87.8798 672.3506 87.8798 687.5384 46.3591 688.5757 46.3591 703.8733 87.8798 722.6006 87.8798 743.4125 23.1783 725.9631 23.1783 712.8508 66.0113" style="fill: #fff;"/>
  <polygon points="301.3773 23.1783 281.284 23.1783 254.9268 47.1901 253.8996 47.1901 253.8996 1.1874 236.8435 1.1874 236.8435 87.8798 253.8996 87.8798 253.8996 64.9027 261.5303 58.6606 282.9292 87.8798 302.7953 87.8798 273.5014 48.3213 301.3773 23.1783" style="fill: #fff;"/>
  <path d="M461.7276,55.6276h20.5721l-.4369.665c-8.8047,13.4067-17.2607,16.22-22.8043,16.22-5.921,0-11.286-3.1789-15.1056-8.9523-6.0702-9.1754-6.6824-22.3096-1.5991-34.2714,3.402-8.2387,13.3388-13.9928,24.1653-13.9928,13.0419,0,19.1398,7.5838,20.5444,14.8113h18.3021c-2.7588-20.7918-21.7377-30.1072-39.4444-30.1072-17.3571,0-32.2421,8.1264-38.8558,21.2253-8.0727,14.267-7.5679,34.7653,1.2276,49.8491,6.5566,11.2424,16.7005,17.4342,28.5634,17.4342,28.2649,0,34.3536-19.7293,34.4115-19.9281l.8419.1199.0017,19.3587c1.4389-.0184,12.6537-.1652,13.3119-.1736v-45.5717h-43.6959v13.3136Z" style="fill: #fff;"/>
  <path d="M855.6663,26.0252c-2.405-1.387-5.1093-2.1207-7.822-2.1207-2.7194,0-5.4296.7371-7.8379,2.1299l-18.1512,10.4986V.8084h-16.8959v87.0731h16.8959v-34.4936l23.4416-14.7282c.0805-.0486.27-.1618.5342-.1618.182,0,.3656.0528.5459.1576.5367.3103.5367.7773.5367.9308v48.2953h16.5865v-48.2953c0-5.6627-2.9282-10.7317-7.8337-13.561Z" style="fill: #fff;"/>
  <path d="M114.3259,23.564v13.182l24.7891.0059.1736.8218c-14.9781,6.6228-28.4083,13.8461-28.2331,29.2829.0981,8.1046,6.2111,18.2527,19.4015,21.3804,2.4167.5744,4.8728.8662,7.3012.8662,5.0808,0,10.2647-1.2285,16.2921-3.864v-12.1833c-3.6108,1.8783-7.2996,2.7211-11.8504,2.7211-1.9069,0-3.989-.1459-6.5532-.4595-3.2997-.4067-7.8714-2.1274-9.894-5.6359-1.1639-2.0201-1.2461-4.342-.2356-6.7168,2.6909-6.3008,7.0119-8.9012,12.8222-11.8864,4.1475-2.1341,11.2374-3.8062,16.1404-3.8062h.4293v24.603h16.7567l-.005-48.3112h-57.3348Z" style="fill: #fff;"/>
</svg>