<?xml version="1.0" encoding="UTF-8"?>
<svg id="Layer_1" data-name="Layer 1" xmlns="http://www.w3.org/2000/svg" viewBox="0 0 316.2966 164.3575">
  <path d="M192.3479,164.329c-.5374,0-1.0542-.2269-1.4167-.6209l-34.0483-36.9043c-.3301-.3596-.5119-.8263-.5119-1.3145l-.001-22.1939,31.9969-29.582c.6838-.6376.9412-1.5621.6917-2.4729-.2495-.9048-.955-1.5837-1.8392-1.7743l-.0531-.0118-.1061-.0118-30.6902.0285v-31.8122c0-2.1752-1.7694-3.9446-3.9446-3.9446h-33.67c-2.1752,0-3.9446,1.7694-3.9446,3.9446v124.7229c0,1.065-.8665,1.9315-1.9315,1.9315h-32.7603c-1.065,0-1.9315-.8665-1.9315-1.9315V37.6588c0-2.1752-1.7694-3.9446-3.9446-3.9446h-33.675c-2.1742,0-3.9436,1.7694-3.9436,3.9446v124.7514c0,1.066-.8665,1.9325-1.9325,1.9325H1.9325c-1.066,0-1.9325-.8665-1.9325-1.9325V37.6588c0-1.066.8665-1.9325,1.9325-1.9325h26.9127c2.1752,0,3.9446-1.7694,3.9446-3.9436V1.9315c0-1.065.8665-1.9315,1.9315-1.9315h42.0416l.6828.6199,26.9068,24.8505c.7418.6858,1.6574,1.0483,2.6468,1.0483,1.8981,0,3.9475-1.5042,3.9475-3.9348V1.961c0-1.066.8665-1.9325,1.9325-1.9325h39.0952l18.4556,17.0094c.726.671,1.6741,1.0404,2.6713,1.0404,1.1082,0,2.1654-.4677,2.9002-1.2821L194.2087,0l105.5629.0285c1.065.001,1.9325.8685,1.9325,1.9335v29.8217c0,1.065-.8656,1.9305-1.9305,1.9305l-106.787-.0285.0295,89.0467c0,2.1742,1.7694,3.9436,3.9436,3.9436h33.4156c.9943,0,1.9453-.3724,2.6762-1.0473l24.5862-22.7215c.7545-.6946,1.0001-1.7625.6268-2.7185-.3743-.9559-1.2782-1.5739-2.3049-1.5739h-36.4976c-1.066,0-1.9325-.8665-1.9325-1.9325v-23.3247c0-1.066.8665-1.9325,1.9325-1.9325h75.6832c11.6628,0,21.1515,9.4886,21.1515,21.1525v69.8031c0,1.066-.8665,1.9325-1.9315,1.9325h-23.3247c-1.066,0-1.9325-.8665-1.9325-1.9325v-37.6353c0-1.3666-1.1151-2.4778-2.4847-2.4778-.616,0-1.2084.2338-1.6692.6592l-44.3396,40.9187c-.3586.3301-.8253.5119-1.3126.5119h0l-46.9539-.0285Z" style="fill: #fff;"/>
</svg>